<svg width="45" height="45" viewBox="0 0 45 45" fill="none" xmlns="http://www.w3.org/2000/svg">
<path d="M27.342 24.544C27.342 25.54 27.018 26.368 26.37 27.028C25.722 27.676 24.864 28.066 23.796 28.198V29.8H22.626V28.216C21.63 28.156 20.778 27.886 20.07 27.406C19.362 26.926 18.852 26.272 18.54 25.444L20.322 24.418C20.73 25.462 21.498 26.05 22.626 26.182V22.438C21.594 22.042 20.796 21.634 20.232 21.214C19.488 20.638 19.116 19.804 19.116 18.712C19.116 17.716 19.452 16.9 20.124 16.264C20.784 15.64 21.618 15.28 22.626 15.184V13.6H23.796V15.202C25.392 15.418 26.508 16.24 27.144 17.668L25.398 18.676C25.086 17.896 24.552 17.422 23.796 17.254V20.818C24.252 20.998 24.54 21.112 24.66 21.16C25.38 21.448 25.902 21.742 26.226 22.042C27.03 22.726 27.402 23.56 27.342 24.544ZM21.186 18.712C21.186 19.072 21.294 19.372 21.51 19.612C21.726 19.852 22.098 20.098 22.626 20.35V17.218C22.182 17.29 21.828 17.458 21.564 17.722C21.312 17.986 21.186 18.316 21.186 18.712ZM23.796 22.888V26.164C24.264 26.068 24.624 25.876 24.876 25.588C25.14 25.3 25.272 24.958 25.272 24.562C25.272 24.178 25.158 23.86 24.93 23.608C24.702 23.356 24.324 23.116 23.796 22.888Z" fill="white"/>
<rect x="0.5" y="0.5" width="44" height="44" rx="4.5" stroke="white"/>
</svg>
